<svg width="50" height="51" viewBox="0 0 50 51" fill="none" xmlns="http://www.w3.org/2000/svg">
<g clip-path="url(#clip0_40_1424)">
<path d="M11.4962 17.2319C11.1153 16.8511 10.4962 16.8511 10.1154 17.2319C9.73359 17.6138 9.73359 18.2319 10.1154 18.6128C10.4963 18.9946 11.1154 18.9946 11.4962 18.6128C11.8779 18.2319 11.8779 17.6138 11.4962 17.2319ZM24.7211 43.9285C25.1517 43.3453 25.3844 42.6427 25.3844 41.9039C25.3844 40.0193 23.8512 38.486 21.9665 38.486H5.36553C4.45215 38.486 3.59385 38.8415 2.94863 39.4869C2.30313 40.1322 1.94766 40.9905 1.94766 41.9039C1.94693 42.6323 2.18024 43.3416 2.61318 43.9273C1.0582 44.7449 -0.00537109 46.3758 -0.00537109 48.2513V49.2278C-0.00537109 49.7672 0.431934 50.2044 0.971191 50.2044H26.3608C26.9001 50.2044 27.3374 49.7672 27.3374 49.2278V48.2513C27.3374 46.3767 26.2749 44.7465 24.7211 43.9285ZM4.32959 40.8678C4.46533 40.7313 4.62678 40.6232 4.8046 40.5496C4.98242 40.476 5.17308 40.4384 5.36553 40.439H21.9665C22.7742 40.439 23.4312 41.0961 23.4312 41.9037C23.4312 42.2953 23.2789 42.6632 23.0023 42.9397C22.8666 43.0762 22.7052 43.1843 22.5273 43.2579C22.3495 43.3315 22.1589 43.3691 21.9664 43.3686H5.36553C4.55781 43.3686 3.90078 42.7114 3.90078 41.9038C3.90078 41.5123 4.05303 41.1443 4.32959 40.8678ZM1.94766 48.2513C1.94766 46.6359 3.26191 45.3217 4.87725 45.3217H22.4548C24.0701 45.3217 25.3844 46.6359 25.3844 48.2513H1.94766Z" fill="white"/>
<path d="M49.0856 41.2337C48.754 40.7197 48.3583 40.2652 47.9094 39.8828L43.3464 35.903C43.3102 35.8485 43.2687 35.7978 43.2225 35.7516C43.1453 35.6748 43.0558 35.6115 42.9578 35.5643L40.1983 33.1575L27.4259 22.0158C27.9487 21.4692 28.2366 20.7545 28.2366 19.9944C28.2366 19.2114 27.9318 18.4756 27.3778 17.9217C27.1426 17.6867 26.8687 17.4939 26.5682 17.3517L27.7498 16.17C28.079 16.2579 28.4183 16.3025 28.7591 16.3027C29.7592 16.3026 30.7594 15.922 31.5207 15.1606C32.2588 14.4227 32.6652 13.4417 32.6652 12.3984C32.6652 11.3552 32.2588 10.3742 31.5208 9.63623L23.2349 1.35049C22.4969 0.6125 21.5158 0.206055 20.4723 0.206055C19.4292 0.206055 18.4484 0.6125 17.7105 1.35049C16.6906 2.37041 16.3549 3.81855 16.7012 5.12148L4.91162 16.9109C4.58177 16.8232 4.24191 16.7787 3.90059 16.7786C2.85684 16.7786 1.87627 17.1848 1.13887 17.9221C-0.38418 19.4451 -0.38418 21.9233 1.13887 23.4465L9.42471 31.7324C10.1863 32.4939 11.1866 32.8747 12.1869 32.8747C13.1873 32.8747 14.1876 32.4939 14.9492 31.7324C15.9691 30.7124 16.3049 29.2644 15.9586 27.9614L17.1378 26.7821C17.2815 27.0819 17.4752 27.3551 17.7106 27.5898C18.264 28.1432 18.9996 28.4479 19.7824 28.4479C20.5417 28.4479 21.2562 28.1605 21.8035 27.6383L35.4076 43.2686C35.4451 43.3271 35.4889 43.3829 35.54 43.4341C35.5575 43.4516 35.5761 43.4675 35.5945 43.4833L39.6483 48.1409C39.7503 48.2612 39.8572 48.3772 39.9686 48.4887C41.082 49.6017 42.5526 50.2057 44.0966 50.2057C44.3688 50.2057 44.6435 50.1869 44.9186 50.1488C46.7573 49.8943 48.3465 48.7943 49.2783 47.1305C50.2991 45.3069 50.2231 42.9918 49.0856 41.2337ZM19.0917 2.73154C19.2726 2.54961 19.4877 2.40534 19.7247 2.3071C19.9617 2.20885 20.2158 2.15858 20.4724 2.15918C20.729 2.15852 20.9833 2.20876 21.2205 2.307C21.4576 2.40525 21.6729 2.54955 21.8539 2.73154L30.1398 11.0174C30.3218 11.1983 30.4661 11.4136 30.5643 11.6506C30.6626 11.8877 30.7128 12.1419 30.7121 12.3985C30.7128 12.6552 30.6625 12.9094 30.5643 13.1464C30.466 13.3835 30.3217 13.5988 30.1397 13.7797C29.3785 14.5411 28.1396 14.5411 27.3784 13.7797L19.0922 5.49346C18.3308 4.73213 18.3303 3.49287 19.0917 2.73154ZM13.5682 30.3514C12.8066 31.1129 11.5673 31.113 10.8058 30.3514L2.51992 22.0655C1.7583 21.3039 1.7583 20.0648 2.51992 19.3031C2.88828 18.9347 3.37871 18.7317 3.90059 18.7317C4.42246 18.7317 4.9125 18.9346 5.28076 19.3027L13.5681 27.59C14.3296 28.3513 14.3296 29.5901 13.5682 30.3514ZM17.6797 23.4783L14.9491 26.209L6.6624 17.9223L17.7105 6.87393L25.9972 15.1606L23.2616 17.8963C23.2527 17.9047 23.244 17.9129 23.2347 17.9222L17.7134 23.4436C17.702 23.4549 17.6908 23.4665 17.6797 23.4783ZM21.1666 25.5155L21.1608 25.5213L20.4731 26.209C20.3826 26.2999 20.2749 26.3721 20.1564 26.4211C20.0378 26.4702 19.9107 26.4953 19.7823 26.4949C19.654 26.4953 19.5269 26.4702 19.4083 26.4211C19.2897 26.372 19.1821 26.2999 19.0916 26.2089C19.0005 26.1183 18.9283 26.0106 18.8791 25.8919C18.83 25.7733 18.8049 25.646 18.8053 25.5176C18.8053 25.2619 18.9028 25.0214 19.0799 24.8399L24.6269 19.293C25.007 18.9232 25.6217 18.9278 25.9974 19.3031C26.0884 19.3937 26.1606 19.5015 26.2097 19.6201C26.2588 19.7388 26.2839 19.866 26.2836 19.9944C26.2841 20.1227 26.259 20.2499 26.2098 20.3684C26.1607 20.4869 26.0884 20.5945 25.9973 20.6848L25.3136 21.3685L25.2996 21.3824L21.1666 25.5155ZM23.1889 26.2553L26.043 23.4012L38.1271 33.9417L33.7176 38.3514L23.1889 26.2553ZM35.0028 39.8281L39.6023 35.2285L41.0776 36.5153L36.2881 41.305L35.0028 39.8281ZM47.5743 46.1764C46.944 47.3017 45.8785 48.0443 44.6509 48.2143C43.4261 48.3838 42.2227 47.9804 41.3494 47.1075C41.2748 47.0331 41.2034 46.9555 41.1354 46.875L41.126 46.864L37.5732 42.7817L42.5528 37.8021L46.63 41.3584L46.6394 41.3665C46.9445 41.626 47.2153 41.9376 47.4451 42.2937C48.1836 43.4348 48.2354 44.9953 47.5743 46.1764Z" fill="white"/>
<path d="M18.4012 10.3268C18.0198 9.94543 17.4016 9.94543 17.0202 10.3268L12.8768 14.4701C12.4955 14.8515 12.4955 15.4698 12.8768 15.8511C12.9674 15.9419 13.0751 16.0139 13.1936 16.063C13.3121 16.1121 13.4391 16.1373 13.5674 16.1371C13.6956 16.1373 13.8227 16.1121 13.9412 16.063C14.0597 16.0139 14.1673 15.9419 14.2579 15.8511L18.4012 11.7077C18.7826 11.3265 18.7826 10.7082 18.4012 10.3268Z" fill="white"/>
</g>
<defs>
<clipPath id="clip0_40_1424">
<rect width="50" height="50" fill="white" transform="translate(-0.00537109 0.206055)"/>
</clipPath>
</defs>
</svg>
