<svg width="43" height="38" viewBox="0 0 43 38" fill="none" xmlns="http://www.w3.org/2000/svg">
<path d="M7.61373 23.1393L7.26988 23.5768L6.69997 23.5255L6.72038 23.8254L6.0542 24.1014L5.64451 23.8706L5.58829 24.2434L4.74951 24.0589L4.83268 23.8236L4.54865 23.6004C4.69417 23.1845 4.60536 22.7127 4.99417 22.418C4.75951 22.1984 4.8576 21.9032 4.9399 21.7315C5.13518 21.3245 5.09056 20.8192 5.34058 20.4886C5.63209 20.1023 5.64991 19.6494 5.81563 19.244C6.01451 18.7574 6.21451 18.2527 6.37225 17.7395C6.52627 17.2385 6.65005 16.6821 7.01087 16.252C7.15457 15.2368 7.74507 14.3902 8.10547 13.4582C8.38628 12.732 8.62695 11.9665 9.07652 11.2994C9.23285 11.0674 9.17002 10.6794 9.68516 10.7143C9.51123 10.3085 9.49686 9.98071 9.76491 9.66246C9.95019 9.42706 10.0934 9.16141 10.1883 8.87725C10.4515 8.14996 10.8636 7.50053 11.2062 6.81475C11.5204 6.18541 11.9202 5.59794 12.2198 4.97471C12.6241 4.1345 13.2876 3.51798 13.7978 2.77613C13.8877 2.64539 14.0893 2.59715 14.2111 2.48116C14.3433 2.35586 14.4181 2.1158 14.5627 2.07134C14.7501 2.01374 14.7444 1.8576 14.846 1.77038C14.9962 1.64142 15.1579 1.52585 15.3463 1.38C15.5168 1.40552 15.7411 1.2172 15.9728 1.40032C16.0311 1.44615 16.2304 1.42275 16.2704 1.36531C16.5731 0.930949 16.991 1.10353 17.4208 1.15058C18.037 1.52219 18.216 2.10477 18.045 2.82232C18.0255 2.91797 17.9932 3.01055 17.9489 3.09751C17.7653 3.42613 17.5106 3.73035 17.4011 4.0808C17.2805 4.46622 17.0444 4.7485 16.8179 5.05227C16.6005 5.34396 16.2542 5.61723 16.2047 5.93611C16.15 6.29081 15.6891 6.42534 15.8262 6.81864C15.4694 6.85173 15.625 7.28345 15.3746 7.39926C15.3898 7.74545 15.0924 7.92754 14.9652 8.19522C14.8474 8.443 14.7042 8.68153 14.5986 8.92551C14.2439 9.72122 13.8331 10.4907 13.3694 11.2283C13.396 11.7262 12.8308 11.9407 12.8098 12.4368C12.7918 12.8627 12.4695 13.199 12.2912 13.5698C12.0886 13.9905 11.8536 14.4142 11.624 14.8303C11.4095 15.2187 11.2384 15.632 11.0307 16.0286C10.7247 16.6133 10.5639 17.2729 10.188 17.8317C10.2756 18.2597 9.77432 18.4319 9.76572 18.8541C9.75842 19.2084 9.52816 19.5603 9.35945 19.864C8.94763 20.6052 8.81117 21.4391 8.44716 22.189C8.36091 22.3666 8.27725 22.5454 8.17883 22.7521C8.00882 22.6561 7.8809 22.5839 7.67943 22.4701L7.61373 23.1393Z" fill="#4BAE4F" stroke="#4BAE4F" stroke-width="2"/>
<path d="M22.8253 18.3112C22.818 18.2504 22.8118 18.1982 22.8055 18.1463L23.4119 18.2011C23.3314 18.0738 23.2793 17.9921 23.1968 17.8614C23.3622 17.6971 23.5145 17.4181 23.7197 17.3713C24.0527 17.2953 23.918 16.9686 24.1246 16.8379C24.312 16.7194 24.4227 16.4202 24.61 16.374C24.9151 16.2988 24.9844 16.0354 25.1795 15.8857C25.385 15.7446 25.5985 15.6155 25.8188 15.4991L25.9996 15.0207L26.5923 15.1259C26.4373 14.9013 26.3863 14.8272 26.303 14.7065C27.0776 14.3946 27.4285 13.5664 28.1631 13.2223C28.2395 13.2588 28.3056 13.2904 28.4803 13.3739C28.3726 13.2077 28.3269 13.1371 28.2737 13.055L28.7561 12.6908C28.8613 12.7564 28.9676 12.8224 29.123 12.919L29.1322 12.6837L29.4609 12.529L29.2936 12.2133C29.5001 12.1515 29.7071 12.0901 29.9519 12.0169C30.0149 12.0558 30.121 12.122 30.2588 12.2075L30.3826 11.5993C30.8689 11.6294 31.3642 11.2999 31.8978 11.4935L31.9411 11.7507C32.1531 11.7253 32.163 11.6449 31.9949 11.3086C32.0215 11.2648 32.0512 11.223 32.0838 11.1834C32.0981 11.1679 32.1307 11.1692 32.2126 11.1479C32.2708 11.2563 32.3359 11.3772 32.4077 11.5105L32.9025 11.6612L32.4736 11.928C32.6511 12.0067 32.7831 12.0653 33.0063 12.1642L32.3785 12.4911L32.3299 12.2738L31.8809 12.4816L32.2986 12.8099L32.1906 13.3546L31.1088 13.9607C31.0549 14.1395 30.5752 14.6108 30.2804 14.7637L30.2988 15.0206L29.783 15.2761L29.7419 15.0582C29.7 15.0697 29.624 15.0705 29.6142 15.0965C29.5019 15.3909 29.5076 15.7556 29.0642 15.824C28.9822 15.8367 28.9328 16.0684 28.8705 16.2001C28.5855 16.8025 28.1442 17.2139 27.4887 17.3656C27.4394 17.4827 27.4091 17.6298 27.3249 17.7329C27.2257 17.8542 26.9593 17.9626 26.9742 18.0323C27.0508 18.3927 26.7037 18.2765 26.5933 18.4134C26.4903 18.5557 26.3568 18.6732 26.2026 18.7573C25.9028 18.9123 25.6549 19.1797 25.4084 19.4233C24.5822 20.241 23.6846 20.9833 22.7263 21.6412C21.9822 22.152 21.2651 22.7047 20.4706 23.1335C19.9355 23.4225 19.3841 23.7605 18.8029 23.8608C18.2777 23.9518 17.7396 24.1254 17.1489 24.0539C17.122 23.9777 17.0893 23.8853 17.0523 23.7789L16.8459 23.7888L16.7718 22.9843C16.9783 22.8396 17.2139 22.7047 17.5744 22.8082C17.4362 22.6618 17.3356 22.5553 17.2272 22.4404L17.3662 22.2635C17.4716 22.2962 17.5643 22.3249 17.6589 22.3542L17.6904 22.0364L17.9731 21.9607L17.9308 21.4443C18.2347 21.4395 18.4835 21.4652 18.7204 21.4234C18.9503 21.383 19.0566 21.004 19.4224 21.1865C19.4415 21.2421 19.4733 21.3344 19.5227 21.4781L19.869 21.0812L19.4792 21.1049C19.6106 20.9542 19.6836 20.8008 19.8008 20.75C20.0673 20.6246 20.3181 20.4681 20.5477 20.2835C20.7643 20.1158 20.9669 19.9306 21.1535 19.73C21.3247 19.5542 21.5442 19.4256 21.7168 19.251C21.8993 19.0666 22.0298 18.827 22.2238 18.6586C22.3958 18.5093 22.6242 18.4236 22.8253 18.3112Z" fill="#4BAE4F" stroke="#4BAE4F" stroke-width="2"/>
<path d="M41.3364 26.5857L41.858 26.9957C41.915 27.3828 41.8311 27.7125 41.5047 28.0529C41.4204 28.0422 41.2647 28.0223 41.0809 27.9989C41.0112 28.6073 40.3408 28.333 40.1745 28.7236C39.5044 28.945 38.8064 28.9545 38.1663 29.2186C38.0647 29.2461 37.9599 29.2599 37.8547 29.2597C37.1239 29.3523 36.403 29.5107 35.7008 29.7329C35.2075 29.8684 34.7049 29.9679 34.1972 30.0305C33.6464 30.0987 33.107 30.2393 32.593 30.4486C32.4915 30.4761 32.3868 30.4901 32.2817 30.4902C31.8667 30.5444 31.4371 30.5499 31.0419 30.6693C30.7235 30.7653 30.3997 30.7668 30.0828 30.8245C29.5355 30.9245 28.9686 30.9198 28.4096 30.9534C27.8467 30.9873 27.2836 31.0351 26.7205 31.0344C26.4859 31.0343 26.2509 30.9243 26.0067 30.8619L25.9545 29.8913C25.9931 29.6377 26.3922 29.8085 26.631 29.661L26.634 29.3875L27.4366 28.7103C28.5364 28.465 29.76 28.1355 31.0142 27.9147C31.6267 27.8074 32.2267 27.6382 32.805 27.4095C33.222 27.2433 33.7021 27.2345 34.1522 27.1406C35.3445 26.8914 36.5558 26.6515 37.7676 26.6013C38.9052 26.5539 40.0437 26.2966 41.3364 26.5857Z" fill="#4BAE4F" stroke="#4BAE4F" stroke-width="2"/>
</svg>
