<svg width="109" height="112" viewBox="0 0 109 112" fill="none" xmlns="http://www.w3.org/2000/svg">
<path d="M34.0985 58.4054L33.6431 58.9849L32.8882 58.9169L32.9152 59.3141L32.0328 59.6798L31.4902 59.374L31.4157 59.8678L30.3047 59.6234L30.4148 59.3119L30.0386 59.0162C30.2314 58.4652 30.1137 57.8404 30.6287 57.45C30.3179 57.1591 30.4478 56.7681 30.5569 56.5407C30.8155 56.0015 30.7564 55.3322 31.0876 54.8943C31.4737 54.3827 31.4973 53.7828 31.7168 53.2458C31.9803 52.6013 32.2452 51.9328 32.4541 51.253C32.6581 50.5893 32.8221 49.8523 33.3 49.2827C33.4904 47.938 34.2725 46.8165 34.7499 45.5821C35.1218 44.6202 35.4406 43.6062 36.0361 42.7226C36.2432 42.4153 36.16 41.9013 36.8423 41.9476C36.6119 41.4101 36.5929 40.9759 36.9479 40.5543C37.1933 40.2425 37.3831 39.8907 37.5087 39.5143C37.8573 38.5509 38.4032 37.6907 38.857 36.7824C39.2733 35.9487 39.8027 35.1706 40.1996 34.3451C40.7351 33.2322 41.614 32.4155 42.2898 31.4329C42.4088 31.2597 42.6759 31.1958 42.8372 31.0422C43.0123 30.8762 43.1114 30.5582 43.303 30.4994C43.5512 30.4231 43.5436 30.2162 43.6782 30.1007C43.8772 29.9299 44.0913 29.7768 44.3409 29.5836C44.5667 29.6174 44.8638 29.368 45.1708 29.6105C45.248 29.6712 45.5119 29.6403 45.5649 29.5642C45.9658 28.9888 46.5194 29.2174 47.0888 29.2798C47.9049 29.772 48.1419 30.5436 47.9155 31.4941C47.8897 31.6208 47.8469 31.7434 47.7882 31.8586C47.545 32.2939 47.2077 32.6968 47.0626 33.161C46.9029 33.6715 46.5901 34.0455 46.2902 34.4478C46.0022 34.8342 45.5434 35.1961 45.4779 35.6185C45.4055 36.0883 44.7949 36.2666 44.9765 36.7875C44.5039 36.8313 44.71 37.4032 44.3783 37.5566C44.3985 38.0151 44.0046 38.2563 43.836 38.6109C43.68 38.9391 43.4903 39.255 43.3505 39.5782C42.8807 40.6322 42.3366 41.6515 41.7223 42.6283C41.7576 43.2879 41.0089 43.572 40.9811 44.2291C40.9573 44.7933 40.5304 45.2387 40.2942 45.7299C40.0258 46.2871 39.7145 46.8483 39.4104 47.3995C39.1264 47.914 38.8997 48.4614 38.6246 48.9868C38.2192 49.7612 38.0063 50.6349 37.5084 51.375C37.6243 51.942 36.9604 52.1701 36.949 52.7293C36.9393 53.1986 36.6343 53.6647 36.4109 54.067C35.8654 55.0488 35.6846 56.1533 35.2025 57.1466C35.0882 57.3819 34.9774 57.6187 34.847 57.8925C34.6219 57.7654 34.4524 57.6697 34.1856 57.5191L34.0985 58.4054Z" fill="#D7471E"/>
<path d="M54.2492 52.0104C54.2395 51.9299 54.2312 51.8608 54.223 51.792L55.0262 51.8646C54.9195 51.696 54.8505 51.5878 54.7413 51.4146C54.9604 51.197 55.1621 50.8275 55.4338 50.7655C55.875 50.6649 55.6965 50.232 55.9701 50.059C56.2184 49.902 56.365 49.5056 56.6131 49.4445C57.0173 49.3448 57.109 48.996 57.3675 48.7976C57.6397 48.6108 57.9224 48.4398 58.2143 48.2856L58.4538 47.6519L59.2388 47.7913C59.0335 47.4937 58.9659 47.3956 58.8557 47.2358C59.8817 46.8226 60.3464 45.7256 61.3195 45.2698C61.4206 45.3182 61.5083 45.3601 61.7396 45.4707C61.597 45.2504 61.5364 45.157 61.4659 45.0482L62.1049 44.5659C62.2443 44.6527 62.385 44.7401 62.5909 44.8681L62.6031 44.5564L63.0384 44.3515L62.8169 43.9333C63.0904 43.8514 63.3646 43.7701 63.6888 43.6732C63.7723 43.7247 63.9129 43.8124 64.0953 43.9256L64.2594 43.1201C64.9035 43.1599 65.5596 42.7235 66.2664 42.9799L66.3237 43.3206C66.6045 43.287 66.6176 43.1804 66.395 42.735C66.4302 42.677 66.4696 42.6216 66.5127 42.5692C66.5316 42.5486 66.5749 42.5503 66.6833 42.5221C66.7605 42.6657 66.8466 42.8258 66.9418 43.0024L67.5972 43.202L67.0291 43.5555C67.2642 43.6597 67.439 43.7373 67.7347 43.8683L66.9031 44.3013L66.8386 44.0134L66.2439 44.2887L66.7972 44.7236L66.6542 45.445L65.2213 46.2478C65.1499 46.4847 64.5144 47.109 64.124 47.3115L64.1484 47.6518L63.4652 47.9903L63.4107 47.7016C63.3552 47.7168 63.2546 47.7179 63.2415 47.7523C63.0929 48.1423 63.1004 48.6253 62.5131 48.716C62.4044 48.7327 62.3389 49.0397 62.2564 49.2141C61.879 50.012 61.2944 50.557 60.4262 50.7579C60.3608 50.913 60.3207 51.1079 60.2092 51.2444C60.0779 51.4051 59.7249 51.5487 59.7446 51.6409C59.8462 52.1183 59.3864 51.9644 59.2401 52.1459C59.1037 52.3343 58.9269 52.4899 58.7226 52.6013C58.3256 52.8067 57.9972 53.1608 57.6706 53.4835C56.5763 54.5666 55.3874 55.5498 54.118 56.4213C53.1324 57.0979 52.1825 57.83 51.1303 58.3979C50.4214 58.7807 49.691 59.2284 48.9212 59.3613C48.2255 59.4818 47.5128 59.7118 46.7303 59.6171C46.6948 59.5161 46.6515 59.3937 46.6024 59.2528L46.329 59.2659L46.2309 58.2003C46.5044 58.0087 46.8164 57.8299 47.2939 57.967C47.1109 57.7731 46.9777 57.632 46.834 57.4798L47.0181 57.2456C47.1579 57.2888 47.2806 57.3269 47.4059 57.3657L47.4476 56.9447L47.8221 56.8444L47.7661 56.1604C48.1686 56.1541 48.4981 56.1881 48.8119 56.1328C49.1165 56.0792 49.2573 55.5773 49.7418 55.819C49.7671 55.8926 49.8093 56.0149 49.8746 56.2052L50.3333 55.6796L49.817 55.7109C49.9911 55.5113 50.0878 55.3081 50.243 55.2408C50.5961 55.0748 50.9282 54.8674 51.2323 54.6229C51.5192 54.4007 51.7876 54.1555 52.0347 53.8897C52.2615 53.6568 52.5522 53.4866 52.7809 53.2553C53.0227 53.011 53.1955 52.6936 53.4525 52.4706C53.6802 52.2729 53.9829 52.1594 54.2492 52.0104Z" fill="#D7471E"/>
<path d="M78.7697 62.9708L79.4606 63.5138C79.5361 64.0265 79.4249 64.4633 78.9927 64.9142C78.881 64.9 78.6747 64.8737 78.4313 64.8427C78.3389 65.6485 77.451 65.2852 77.2306 65.8025C76.3431 66.0959 75.4185 66.1084 74.5707 66.4583C74.4361 66.4947 74.2973 66.513 74.1579 66.5127C73.19 66.6353 72.2351 66.8451 71.305 67.1395C70.6515 67.319 69.9859 67.4507 69.3133 67.5337C68.5837 67.624 67.8693 67.8102 67.1884 68.0874C67.054 68.1239 66.9154 68.1425 66.7761 68.1426C66.2264 68.2143 65.6574 68.2216 65.1339 68.3798C64.7121 68.5069 64.2833 68.5089 63.8635 68.5854C63.1385 68.7179 62.3877 68.7116 61.6472 68.7561C60.9017 68.801 60.1557 68.8643 59.4099 68.8634C59.0991 68.8632 58.7879 68.7176 58.4644 68.6349L58.3952 67.3493C58.4464 67.0134 58.9751 67.2396 59.2913 67.0443L59.2954 66.6819L60.3585 65.785C61.8152 65.46 63.436 65.0237 65.0972 64.7311C65.9085 64.589 66.7033 64.3648 67.4692 64.062C68.0215 63.8419 68.6575 63.8302 69.2537 63.7057C70.833 63.3757 72.4375 63.0579 74.0426 62.9914C75.5495 62.9287 77.0574 62.5878 78.7697 62.9708Z" fill="#D7471E"/>
</svg>
