<svg width="57" height="50" viewBox="0 0 57 50" fill="none" xmlns="http://www.w3.org/2000/svg">
<path d="M46.1856 31.0941L46.6411 31.6736L47.396 31.6057L47.369 32.0029L48.2514 32.3685L48.794 32.0627L48.8685 32.5565L49.9795 32.3121L49.8694 32.0006L50.2456 31.7049C50.0528 31.154 50.1704 30.5291 49.6554 30.1387C49.9663 29.8478 49.8363 29.4568 49.7273 29.2294C49.4687 28.6903 49.5278 28.0209 49.1966 27.583C48.8105 27.0714 48.7869 26.4715 48.5674 25.9345C48.3039 25.29 48.039 24.6215 47.8301 23.9417C47.6261 23.278 47.4621 22.5411 46.9842 21.9714C46.7938 20.6267 46.0117 19.5053 45.5343 18.2708C45.1623 17.3089 44.8436 16.2949 44.2481 15.4114C44.041 15.104 44.1242 14.59 43.4419 14.6363C43.6723 14.0988 43.6913 13.6646 43.3363 13.2431C43.0908 12.9313 42.9011 12.5794 42.7755 12.203C42.4268 11.2396 41.8809 10.3794 41.4272 9.47107C41.0109 8.63747 40.4815 7.85931 40.0845 7.03381C39.5491 5.92089 38.6702 5.10425 37.9943 4.12162C37.8753 3.94845 37.6083 3.88455 37.447 3.73092C37.2719 3.56495 37.1728 3.24697 36.9812 3.18807C36.733 3.11179 36.7406 2.90496 36.606 2.78943C36.407 2.61862 36.1929 2.46554 35.9432 2.27235C35.7175 2.30616 35.4204 2.05671 35.1134 2.29927C35.0362 2.35997 34.7722 2.32897 34.7192 2.2529C34.3184 1.67755 33.7648 1.90614 33.1954 1.96847C32.3792 2.46069 32.1422 3.23237 32.3687 4.18281C32.3944 4.30951 32.4373 4.43213 32.496 4.54731C32.7392 4.9826 33.0765 5.38556 33.2216 5.84976C33.3812 6.36027 33.6941 6.73418 33.994 7.13654C34.282 7.52291 34.7407 7.88487 34.8063 8.30725C34.8787 8.77707 35.4893 8.95527 35.3077 9.47623C35.7802 9.52005 35.5742 10.0919 35.9059 10.2453C35.8857 10.7039 36.2796 10.945 36.4481 11.2996C36.6042 11.6278 36.7938 11.9437 36.9336 12.2669C37.4035 13.3209 37.9476 14.3402 38.5618 15.3171C38.5266 15.9767 39.2752 16.2608 39.3031 16.9179C39.3269 17.482 39.7538 17.9275 39.99 18.4186C40.2583 18.9758 40.5697 19.537 40.8738 20.0882C41.1578 20.6028 41.3845 21.1501 41.6596 21.6755C42.065 22.4499 42.2779 23.3237 42.7758 24.0638C42.6599 24.6307 43.3238 24.8589 43.3352 25.4181C43.3449 25.8873 43.6498 26.3534 43.8733 26.7557C44.4188 27.7375 44.5996 28.842 45.0817 29.8353C45.196 30.0706 45.3068 30.3075 45.4371 30.5812C45.6623 30.4541 45.8318 30.3584 46.0986 30.2078L46.1856 31.0941Z" fill="#D7471E"/>
<path d="M26.035 24.6989C26.0447 24.6184 26.0529 24.5492 26.0612 24.4804L25.258 24.5531C25.3646 24.3845 25.4336 24.2763 25.5429 24.1031C25.3238 23.8855 25.1221 23.5159 24.8504 23.4539C24.4092 23.3533 24.5877 22.9205 24.314 22.7474C24.0658 22.5905 23.9192 22.1941 23.6711 22.133C23.2669 22.0333 23.1752 21.6845 22.9167 21.4861C22.6445 21.2992 22.3618 21.1283 22.0699 20.974L21.8304 20.3404L21.0454 20.4798C21.2506 20.1822 21.3183 20.0841 21.4285 19.9242C20.4025 19.5111 19.9378 18.4141 18.9647 17.9582C18.8635 18.0067 18.7759 18.0485 18.5445 18.1591C18.6872 17.9389 18.7478 17.8455 18.8183 17.7367L18.1793 17.2543C18.0399 17.3411 17.8991 17.4286 17.6933 17.5566L17.6811 17.2449L17.2457 17.04L17.4673 16.6218C17.1938 16.5399 16.9196 16.4586 16.5953 16.3617C16.5118 16.4131 16.3713 16.5008 16.1889 16.6141L16.0248 15.8085C15.3807 15.8484 14.7246 15.412 14.0178 15.6684L13.9605 16.0091C13.6797 15.9754 13.6666 15.8689 13.8892 15.4235C13.8539 15.3655 13.8146 15.3101 13.7715 15.2577C13.7526 15.237 13.7093 15.2388 13.6009 15.2106C13.5237 15.3542 13.4376 15.5143 13.3424 15.6909L12.687 15.8905L13.2551 16.244C13.02 16.3482 12.8452 16.4258 12.5495 16.5568L13.381 16.9897L13.4455 16.7019L14.0403 16.9772L13.487 17.412L13.63 18.1335L15.0629 18.9363C15.1343 19.1732 15.7698 19.7975 16.1602 20L16.1358 20.3403L16.819 20.6788L16.8735 20.39C16.929 20.4053 17.0296 20.4064 17.0427 20.4408C17.1913 20.8308 17.1838 21.3138 17.7711 21.4045C17.8798 21.4212 17.9452 21.7282 18.0278 21.9026C18.4052 22.7005 18.9898 23.2455 19.858 23.4464C19.9233 23.6015 19.9635 23.7964 20.075 23.9329C20.2063 24.0935 20.5592 24.2372 20.5396 24.3294C20.438 24.8068 20.8978 24.6529 21.0441 24.8343C21.1805 25.0228 21.3573 25.1784 21.5616 25.2898C21.9586 25.4951 22.287 25.8493 22.6135 26.172C23.7079 27.2551 24.8968 28.2383 26.1661 29.1098C27.1517 29.7864 28.1016 30.5185 29.1539 31.0864C29.8628 31.4692 30.5931 31.9169 31.363 32.0498C32.0586 32.1703 32.7714 32.4003 33.5539 32.3056C33.5894 32.2046 33.6327 32.0822 33.6818 31.9413L33.9552 31.9544L34.0533 30.8888C33.7797 30.6972 33.4678 30.5184 32.9903 30.6555C33.1733 30.4616 33.3065 30.3205 33.4501 30.1683L33.266 29.934C33.1263 29.9773 33.0036 30.0153 32.8783 30.0542L32.8365 29.6332L32.462 29.5329L32.5181 28.8489C32.1155 28.8426 31.7861 28.8765 31.4723 28.8213C31.1677 28.7677 31.0269 28.2658 30.5424 28.5075C30.517 28.5811 30.4749 28.7034 30.4095 28.8937L29.9509 28.368L30.4672 28.3994C30.2931 28.1997 30.1964 27.9966 30.0412 27.9293C29.6881 27.7632 29.356 27.5558 29.0519 27.3114C28.765 27.0892 28.4966 26.8439 28.2495 26.5782C28.0227 26.3453 27.732 26.1751 27.5033 25.9438C27.2615 25.6995 27.0887 25.3821 26.8317 25.159C26.604 24.9614 26.3013 24.8478 26.035 24.6989Z" fill="#D7471E"/>
<path d="M1.51446 35.6593L0.823552 36.2023C0.748089 36.715 0.85924 37.1517 1.2915 37.6026C1.40319 37.5885 1.6095 37.5622 1.85284 37.5312C1.94524 38.337 2.83319 37.9736 3.05354 38.491C3.94113 38.7843 4.86569 38.7969 5.7135 39.1467C5.84806 39.1832 5.98687 39.2015 6.12626 39.2011C7.09418 39.3237 8.04905 39.5336 8.97922 39.828C9.63268 40.0075 10.2983 40.1392 10.9709 40.2222C11.7005 40.3125 12.4149 40.4987 13.0958 40.7759C13.2302 40.8124 13.3688 40.8309 13.5081 40.831C14.0577 40.9028 14.6268 40.9101 15.1503 41.0682C15.572 41.1954 16.0009 41.1974 16.4206 41.2738C17.1457 41.4063 17.8965 41.4001 18.637 41.4446C19.3825 41.4895 20.1285 41.5528 20.8743 41.5519C21.1851 41.5517 21.4963 41.4061 21.8198 41.3234L21.8889 40.0377C21.8378 39.7018 21.3091 39.9281 20.9929 39.7327L20.9888 39.3704L19.9257 38.4735C18.469 38.1485 16.8482 37.7121 15.187 37.4195C14.3757 37.2775 13.5809 37.0533 12.815 36.7505C12.2626 36.5303 11.6267 36.5187 11.0305 36.3942C9.45118 36.0642 7.84669 35.7464 6.2416 35.6799C4.73473 35.6172 3.22678 35.2763 1.51446 35.6593Z" fill="#D7471E"/>
</svg>
