<svg width="108" height="112" viewBox="0 0 108 112" fill="none" xmlns="http://www.w3.org/2000/svg">
<path d="M33.1679 58.0939L32.7124 58.6734L31.9575 58.6054L31.9846 59.0026L31.1022 59.3683L30.5595 59.0625L30.485 59.5563L29.374 59.3119L29.4842 59.0003L29.108 58.7047C29.3007 58.1537 29.1831 57.5289 29.6981 57.1385C29.3872 56.8475 29.5172 56.4565 29.6262 56.2292C29.8848 55.69 29.8258 55.0207 30.1569 54.5828C30.543 54.0712 30.5667 53.4712 30.7862 52.9343C31.0496 52.2898 31.3145 51.6213 31.5234 50.9414C31.7275 50.2778 31.8914 49.5408 32.3693 48.9712C32.5597 47.6265 33.3418 46.505 33.8192 45.2705C34.1912 44.3087 34.51 43.2947 35.1054 42.4111C35.3125 42.1038 35.2293 41.5898 35.9116 41.636C35.6812 41.0985 35.6622 40.6644 36.0173 40.2428C36.2627 39.931 36.4524 39.5792 36.578 39.2028C36.9267 38.2394 37.4726 37.3792 37.9263 36.4708C38.3426 35.6372 38.8721 34.8591 39.269 34.0336C39.8045 32.9206 40.6833 32.104 41.3592 31.1214C41.4782 30.9482 41.7452 30.8843 41.9065 30.7307C42.0816 30.5647 42.1807 30.2467 42.3723 30.1878C42.6205 30.1115 42.6129 29.9047 42.7475 29.7892C42.9465 29.6184 43.1606 29.4653 43.4103 29.2721C43.636 29.3059 43.9331 29.0565 44.2401 29.299C44.3173 29.3597 44.5813 29.3287 44.6343 29.2527C45.0352 28.6773 45.5887 28.9059 46.1581 28.9682C46.9743 29.4604 47.2113 30.2321 46.9848 31.1826C46.9591 31.3093 46.9162 31.4319 46.8575 31.5471C46.6143 31.9824 46.277 32.3853 46.132 32.8495C45.9723 33.36 45.6595 33.7339 45.3595 34.1363C45.0715 34.5227 44.6128 34.8846 44.5472 35.307C44.4748 35.7768 43.8642 35.955 44.0459 36.476C43.5733 36.5198 43.7794 37.0917 43.4476 37.2451C43.4679 37.7036 43.0739 37.9448 42.9054 38.2994C42.7493 38.6276 42.5597 38.9435 42.4199 39.2667C41.95 40.3207 41.4059 41.3399 40.7917 42.3168C40.8269 42.9764 40.0783 43.2605 40.0504 43.9176C40.0267 44.4818 39.5997 44.9272 39.3635 45.4183C39.0952 45.9756 38.7838 46.5368 38.4797 47.088C38.1957 47.6025 37.9691 48.1499 37.694 48.6752C37.2885 49.4497 37.0756 50.3234 36.5777 51.0635C36.6937 51.6305 36.0297 51.8586 36.0183 52.4178C36.0087 52.8871 35.7037 53.3532 35.4802 53.7555C34.9347 54.7373 34.754 55.8418 34.2718 56.8351C34.1576 57.0704 34.0467 57.3072 33.9164 57.581C33.6912 57.4539 33.5218 57.3582 33.2549 57.2075L33.1679 58.0939Z" fill="white"/>
<path d="M53.3185 51.6989C53.3089 51.6184 53.3006 51.5492 53.2923 51.4804L54.0955 51.5531C53.9889 51.3845 53.9199 51.2763 53.8106 51.1031C54.0297 50.8855 54.2314 50.5159 54.5032 50.4539C54.9443 50.3533 54.7658 49.9205 55.0395 49.7474C55.2878 49.5905 55.4344 49.1941 55.6824 49.133C56.0867 49.0333 56.1783 48.6845 56.4369 48.4861C56.709 48.2992 56.9918 48.1283 57.2837 47.974L57.5232 47.3404L58.3081 47.4798C58.1029 47.1822 58.0352 47.0841 57.925 46.9242C58.951 46.5111 59.4158 45.4141 60.3888 44.9582C60.49 45.0067 60.5776 45.0485 60.809 45.1591C60.6663 44.9389 60.6057 44.8455 60.5352 44.7367L61.1742 44.2543C61.3136 44.3411 61.4544 44.4286 61.6602 44.5566L61.6724 44.2449L62.1078 44.04L61.8862 43.6218C62.1597 43.5399 62.4339 43.4586 62.7582 43.3617C62.8417 43.4131 62.9822 43.5008 63.1647 43.6141L63.3287 42.8085C63.9728 42.8484 64.6289 42.412 65.3357 42.6684L65.393 43.0091C65.6739 42.9754 65.687 42.8689 65.4643 42.4235C65.4996 42.3655 65.5389 42.3101 65.582 42.2577C65.6009 42.237 65.6442 42.2388 65.7526 42.2106C65.8298 42.3542 65.916 42.5143 66.0111 42.6909L66.6665 42.8905L66.0984 43.244C66.3335 43.3482 66.5083 43.4258 66.804 43.5568L65.9725 43.9897L65.908 43.7019L65.3133 43.9772L65.8666 44.412L65.7235 45.1335L64.2907 45.9363C64.2193 46.1732 63.5837 46.7975 63.1933 47L63.2177 47.3403L62.5345 47.6788L62.4801 47.39C62.4245 47.4053 62.3239 47.4064 62.3108 47.4408C62.1622 47.8308 62.1697 48.3138 61.5824 48.4045C61.4737 48.4212 61.4083 48.7282 61.3257 48.9026C60.9483 49.7005 60.3637 50.2455 59.4955 50.4464C59.4302 50.6015 59.3901 50.7964 59.2785 50.9329C59.1472 51.0935 58.7943 51.2372 58.814 51.3294C58.9155 51.8068 58.4557 51.6529 58.3094 51.8343C58.173 52.0228 57.9962 52.1784 57.7919 52.2898C57.3949 52.4951 57.0665 52.8493 56.74 53.172C55.6456 54.2551 54.4567 55.2383 53.1874 56.1098C52.2018 56.7864 51.2519 57.5185 50.1996 58.0864C49.4907 58.4692 48.7604 58.9169 47.9905 59.0498C47.2949 59.1703 46.5821 59.4003 45.7996 59.3056C45.7641 59.2046 45.7208 59.0822 45.6717 58.9413L45.3983 58.9544L45.3002 57.8888C45.5738 57.6972 45.8858 57.5184 46.3632 57.6555C46.1802 57.4616 46.0471 57.3205 45.9034 57.1683L46.0875 56.934C46.2272 56.9773 46.3499 57.0153 46.4753 57.0542L46.517 56.6332L46.8915 56.5329L46.8354 55.8489C47.238 55.8426 47.5675 55.8765 47.8813 55.8213C48.1858 55.7677 48.3266 55.2658 48.8111 55.5075C48.8365 55.5811 48.8786 55.7034 48.944 55.8937L49.4026 55.368L48.8863 55.3994C49.0605 55.1997 49.1571 54.9966 49.3123 54.9293C49.6654 54.7632 49.9975 54.5558 50.3016 54.3114C50.5885 54.0892 50.8569 53.8439 51.104 53.5782C51.3309 53.3453 51.6216 53.1751 51.8502 52.9438C52.092 52.6995 52.2649 52.3821 52.5218 52.159C52.7496 51.9614 53.0522 51.8478 53.3185 51.6989Z" fill="white"/>
<path d="M77.8391 62.6593L78.53 63.2023C78.6054 63.715 78.4943 64.1517 78.062 64.6026C77.9503 64.5885 77.744 64.5622 77.5007 64.5312C77.4083 65.337 76.5203 64.9736 76.3 65.491C75.4124 65.7843 74.4878 65.7969 73.64 66.1467C73.5055 66.1832 73.3666 66.2015 73.2273 66.2011C72.2593 66.3237 71.3045 66.5336 70.3743 66.828C69.7208 67.0075 69.0552 67.1392 68.3826 67.2222C67.6531 67.3125 66.9386 67.4987 66.2578 67.7759C66.1233 67.8124 65.9847 67.8309 65.8454 67.831C65.2958 67.9028 64.7267 67.9101 64.2032 68.0682C63.7815 68.1954 63.3526 68.1974 62.9329 68.2738C62.2079 68.4063 61.457 68.4001 60.7165 68.4446C59.971 68.4895 59.2251 68.5528 58.4792 68.5519C58.1684 68.5517 57.8572 68.4061 57.5337 68.3234L57.4646 67.0377C57.5157 66.7018 58.0444 66.9281 58.3607 66.7327L58.3647 66.3704L59.4278 65.4735C60.8846 65.1485 62.5053 64.7121 64.1666 64.4195C64.9779 64.2775 65.7726 64.0533 66.5385 63.7505C67.0909 63.5303 67.7269 63.5187 68.323 63.3942C69.9023 63.0642 71.5068 62.7464 73.1119 62.6799C74.6188 62.6172 76.1267 62.2763 77.8391 62.6593Z" fill="white"/>
</svg>
